<svg xmlns="http://www.w3.org/2000/svg" xmlns:xlink="http://www.w3.org/1999/xlink" viewBox="0 0 1612.1 831.95"><defs><style>.cls-1{fill:url(#Naamloos_verloop_3);}.cls-2{fill:url(#Naamloos_verloop_3-2);}.cls-3{fill:url(#Naamloos_verloop_3-3);}}</style><linearGradient id="Naamloos_verloop_3" x1="274.42" y1="556.2" x2="274.42" y2="43.94" gradientTransform="matrix(1, 0, 0, -1, 0, 875.89)" gradientUnits="userSpaceOnUse"><stop offset="0" stop-color="#ff9524"/><stop offset="0.35" stop-color="#f88c1b"/><stop offset="0.93" stop-color="#e47203"/><stop offset="1" stop-color="#e16f00"/></linearGradient><linearGradient id="Naamloos_verloop_3-2" x1="697.25" y1="614.38" x2="697.25" y2="349.18" xlink:href="#Naamloos_verloop_3"/><linearGradient id="Naamloos_verloop_3-3" x1="213.65" y1="875.89" x2="213.65" y2="381.23" xlink:href="#Naamloos_verloop_3"/></defs><g id="Laag_2" data-name="Laag 2"><g id="Laag_1-2" data-name="Laag 1"><g id="Laag_2-2" data-name="Laag 2"><g id="Laag_1-2-2" data-name="Laag 1-2"><polygon class="cls-1" points="468.16 319.69 285.12 691.62 98.31 346.54 0 628.62 0 628.95 0 831.95 370.25 652.13 548.85 565.39 468.16 319.69"/><polygon class="cls-2" points="856.27 415.97 538.23 261.51 628.27 526.71 856.27 415.97"/><polygon class="cls-3" points="68.08 91 282.09 494.66 427.31 207.53 0 0 0 308.43 68.08 91"/><g class="cls-4"><text class="cls-5" transform="translate(654.25 561.46) scale(1.16 1)">p</text><text class="cls-6" transform="translate(954.4 561.46) scale(1.16 1)">i</text><text class="cls-7" transform="translate(1093.59 561.46) scale(1.16 1)">r</text><text class="cls-8" transform="translate(1321.84 561.46) scale(1.16 1)">e</text></g></g></g></g></g></svg>